<?xml version="1.0" encoding="UTF-8" standalone="no"?>
<!-- Created with Inkscape (http://www.inkscape.org/) -->

<svg
   width="54.638229mm"
   height="54.638229mm"
   viewBox="0 0 54.638229 54.638229"
   version="1.1"
   id="svg1"
   sodipodi:docname="bomb.svg"
   inkscape:version="1.4.2 (ebf0e940, 2025-05-08)"
   xmlns:inkscape="http://www.inkscape.org/namespaces/inkscape"
   xmlns:sodipodi="http://sodipodi.sourceforge.net/DTD/sodipodi-0.dtd"
   xmlns="http://www.w3.org/2000/svg"
   xmlns:svg="http://www.w3.org/2000/svg">
  <sodipodi:namedview
     id="namedview1"
     pagecolor="#ffffff"
     bordercolor="#000000"
     borderopacity="0.25"
     inkscape:showpageshadow="2"
     inkscape:pageopacity="0.0"
     inkscape:pagecheckerboard="0"
     inkscape:deskcolor="#d1d1d1"
     inkscape:document-units="mm"
     inkscape:zoom="3.3316832"
     inkscape:cx="103.85141"
     inkscape:cy="88.843981"
     inkscape:window-width="1536"
     inkscape:window-height="1121"
     inkscape:window-x="709"
     inkscape:window-y="25"
     inkscape:window-maximized="0"
     inkscape:current-layer="svg1" />
  <defs
     id="defs1" />
  <g
     id="layer1"
     transform="translate(-12.053958,-45.938858)">
    <path
       id="path2"
       style="fill:#8e5da1;fill-opacity:1;stroke-width:1.4;stroke:#2c002c;stroke-opacity:1;stroke-dasharray:none"
       d="M 23.963022 56.603704 L 20.859819 63.469211 L 20.859325 63.46906 A 21.946491 21.946491 0.094698218 0 0 15.251326 62.740271 A 21.946491 21.946491 0.094698218 0 0 -6.6947678 84.686635 A 21.946491 21.946491 0.094698218 0 0 15.251445 106.63322 A 21.946491 21.946491 0.094698218 0 0 37.198033 84.68701 A 21.946491 21.946491 0.094698218 0 0 28.296501 67.038169 L 31.477462 60.000796 L 23.963022 56.603704 z "
       transform="rotate(-16.945904)" />
    <path
       id="circle3"
       style="fill:#ffffff;fill-opacity:1;stroke-width:2.94398"
       d="M 41.766615,57.074506 A 16.629281,20.657235 28.85907 0 0 24.18303,68.839563 16.629281,20.657235 28.85907 0 0 21.43303,83.90557 19.812059,24.610946 28.85907 0 1 25.087424,70.870892 19.812059,24.610946 28.85907 0 1 42.946466,57.157504 16.629281,20.657235 28.85907 0 0 41.766614,57.074524 Z" />
  </g>
</svg>
