<?xml version="1.0" encoding="UTF-8" standalone="no"?>
<!-- Created with Inkscape (http://www.inkscape.org/) -->

<svg
   width="54.638229mm"
   height="54.638229mm"
   viewBox="0 0 54.638229 54.638229"
   version="1.1"
   id="svg1"
   sodipodi:docname="lifeup.svg"
   inkscape:version="1.4.2 (ebf0e940, 2025-05-08)"
   xml:space="preserve"
   xmlns:inkscape="http://www.inkscape.org/namespaces/inkscape"
   xmlns:sodipodi="http://sodipodi.sourceforge.net/DTD/sodipodi-0.dtd"
   xmlns="http://www.w3.org/2000/svg"
   xmlns:svg="http://www.w3.org/2000/svg"><sodipodi:namedview
     id="namedview1"
     pagecolor="#ffffff"
     bordercolor="#000000"
     borderopacity="0.25"
     inkscape:showpageshadow="2"
     inkscape:pageopacity="0.0"
     inkscape:pagecheckerboard="0"
     inkscape:deskcolor="#d1d1d1"
     inkscape:document-units="mm"
     inkscape:zoom="2.3558558"
     inkscape:cx="88.50287"
     inkscape:cy="47.54111"
     inkscape:window-width="1976"
     inkscape:window-height="1119"
     inkscape:window-x="0"
     inkscape:window-y="25"
     inkscape:window-maximized="0"
     inkscape:current-layer="layer1" /><defs
     id="defs1" /><g
     id="layer1"
     transform="translate(-12.053958,-45.938858)"><path
       style="fill:#cc9060;fill-opacity:1;stroke-width:1.49961"
       id="path3"
       d="m 21.666979,77.921581 -5.285405,-14.251148 14.50939,-4.52862 11.920368,-9.430565 8.79062,12.399828 12.652598,8.422738 -9.076489,12.192134 -4.100628,14.636107 -14.400202,-4.864677 -15.186927,0.622875 z" /><path
       id="path1"
       style="fill:#d6362a;fill-opacity:1;stroke:#592d36;stroke-width:1.5;stroke-linejoin:miter;stroke-dasharray:none;stroke-opacity:1"
       inkscape:transform-center-y="6.2982009"
       d="M 39.008756,93.989459 C 23.610507,86.2395 15.345052,72.442552 21.298468,61.716425 c 3.052884,-5.500309 13.986885,-5.193871 17.934555,0.599583 4.272386,-5.597138 15.558334,-6.137198 18.607354,-0.359751 5.796752,10.984 -3.927457,23.964273 -18.831621,32.033202 z"
       sodipodi:nodetypes="cacac" /><path
       style="fill:#fcd0ca;fill-opacity:1;stroke:none;stroke-width:1.5;stroke-linejoin:miter;stroke-dasharray:none;stroke-opacity:1"
       d="m 22.024863,70.696176 c 1.977677,-4.123277 4.065776,-9.803411 9.641178,-10.996099 -6.846199,0.329962 -10.068655,3.864542 -9.641178,10.996099 z"
       id="path2"
       sodipodi:nodetypes="ccc" /><path
       style="fill:#fcd0ca;fill-opacity:1;stroke:none;stroke-width:0.915014;stroke-linejoin:miter;stroke-dasharray:none;stroke-opacity:1"
       d="m 41.347214,63.841279 c 2.480367,-2.518293 4.448319,-4.171483 9.106182,-3.393021 -4.317706,-1.395332 -6.882388,-0.355046 -9.106182,3.393021 z"
       id="path4"
       sodipodi:nodetypes="ccc" /></g></svg>
