<?xml version="1.0" encoding="UTF-8" standalone="no"?>
<!-- Created with Inkscape (http://www.inkscape.org/) -->

<svg
   width="54.638229mm"
   height="54.638229mm"
   viewBox="0 0 54.638229 54.638229"
   version="1.1"
   id="svg1"
   sodipodi:docname="speedup.svg"
   inkscape:version="1.4.2 (ebf0e940, 2025-05-08)"
   xml:space="preserve"
   xmlns:inkscape="http://www.inkscape.org/namespaces/inkscape"
   xmlns:sodipodi="http://sodipodi.sourceforge.net/DTD/sodipodi-0.dtd"
   xmlns="http://www.w3.org/2000/svg"
   xmlns:svg="http://www.w3.org/2000/svg"><sodipodi:namedview
     id="namedview1"
     pagecolor="#ffffff"
     bordercolor="#000000"
     borderopacity="0.25"
     inkscape:showpageshadow="2"
     inkscape:pageopacity="0.0"
     inkscape:pagecheckerboard="0"
     inkscape:deskcolor="#d1d1d1"
     inkscape:document-units="mm"
     inkscape:zoom="2.3558558"
     inkscape:cx="104.20842"
     inkscape:cy="89.139581"
     inkscape:window-width="1776"
     inkscape:window-height="1119"
     inkscape:window-x="0"
     inkscape:window-y="25"
     inkscape:window-maximized="0"
     inkscape:current-layer="layer1" /><defs
     id="defs1" /><g
     id="layer1"
     transform="translate(-12.053958,-45.938858)"><path
       style="fill:#cc60a8;fill-opacity:1;stroke-width:1.49961"
       id="path3"
       d="m 21.666979,77.921581 -5.285405,-14.251148 14.50939,-4.52862 11.920368,-9.430565 8.79062,12.399828 12.652598,8.422738 -9.076489,12.192134 -4.100628,14.636107 -14.400202,-4.864677 -15.186927,0.622875 z" /><path
       id="path17"
       style="fill:none;fill-opacity:1;stroke:#652b65;stroke-width:2.5;stroke-dasharray:none;stroke-opacity:1"
       d="M 41.947741 52.395311 C 38.644358 52.460083 29.729882 55.148332 29.729882 56.592471 C 29.931342 57.756553 30.172213 59.173384 30.401675 60.618582 L 29.519559 60.564322 L 29.00021 61.025276 L 28.759915 64.943383 L 29.218802 65.462731 L 31.091556 65.577969 C 31.129679 65.935126 31.16117 66.270273 31.184573 66.577392 L 29.19348 66.454918 L 28.673615 66.915872 L 28.46691 70.262955 C 26.446059 71.163752 23.715508 71.911747 21.705048 72.317093 C 18.40089 72.983272 15.763298 76.037267 14.221784 79.615355 C 13.405789 81.509404 14.333922 86.420108 14.333922 86.420108 L 14.333922 88.861819 C 14.333922 88.861819 14.655508 90.604697 15.589143 91.434789 L 17.985896 93.565925 C 20.143628 95.484381 24.309771 96.253624 27.326411 95.290884 L 54.615701 86.628364 C 56.420351 86.12942 57.418008 85.531098 57.421215 83.732417 L 57.421215 81.304658 C 57.421235 81.300228 57.421207 81.295667 57.421215 81.291222 C 57.4212 81.275816 57.421228 81.260216 57.421215 81.244713 L 57.421215 79.92128 L 57.420698 79.92128 C 57.421472 73.29961 57.460456 60.93689 57.460489 54.648404 L 57.460489 54.640652 C 57.460489 52.190093 45.251124 52.330541 41.947741 52.395311 z " /><g
       id="g17"
       transform="matrix(1.0302052,0,0,1.0302052,-2.1510321,-4.9361373)"><path
         style="fill:#133c73;fill-opacity:1;stroke:none;stroke-width:5.59822;stroke-dasharray:none;stroke-opacity:1"
         d="m 30.946421,59.724501 c 0,-1.401798 8.652685,-4.011033 11.859214,-4.073906 3.206529,-0.06287 15.058125,-0.199119 15.058125,2.179591 0,2.37871 -7.859153,7.660052 -11.883033,7.691489 -4.023879,0.03144 -9.116601,-0.408674 -10.782738,-0.974535 -1.66614,-0.565856 -4.251568,-4.822639 -4.251568,-4.822639 z"
         id="path13"
         sodipodi:nodetypes="cssssc" /><path
         id="rect2"
         style="fill:#d0d39b;fill-opacity:1;stroke:none;stroke-width:1.22577;stroke-opacity:1"
         d="m 16.001601,87.268732 v 3.779011 c 0,0 0.312255,1.692033 1.218516,2.497787 l 2.326525,2.068481 c 2.094468,1.862208 6.138369,2.608957 9.066563,1.674444 l 26.488922,-8.408609 c 1.751739,-0.484315 2.720291,-1.064863 2.723404,-2.810807 v -3.699404 z"
         sodipodi:nodetypes="ccccccccc" /><path
         id="path12"
         style="fill:#4374b2;fill-opacity:1;stroke:none;stroke-width:1.22577;stroke-opacity:1"
         d="m 57.86376,57.830187 c -2.165507,2.837571 -8.0479,3.017558 -12.952002,3.520544 -4.904105,0.502984 -11.330491,0.138717 -13.965336,-1.626228 0.603119,3.484957 1.57223,9.303998 1.446484,11.064453 -0.125746,1.760443 -5.778364,3.501948 -9.236196,4.199111 -3.207281,0.646647 -5.767807,3.61136 -7.264125,7.08454 -0.79207,1.838516 0.109016,6.605223 0.109016,6.605223 0,0 0.312259,1.692022 1.218519,2.497788 l 2.326525,2.068469 c 2.094468,1.862209 6.138369,2.608957 9.066564,1.674455 l 26.488922,-8.40862 c 1.751738,-0.484314 2.720327,-1.064863 2.723441,-2.810807 -0.0055,-5.952638 0.03819,-19.316104 0.03819,-25.868928 z"
         sodipodi:nodetypes="cscssscccccccc" /><g
         id="path5"
         style="opacity:1;stroke:#4e4d0a;stroke-opacity:1"
         transform="matrix(0.95081755,0.05857959,-0.05857959,0.95081755,1.7420835,3.0761982)"><path
           style="baseline-shift:baseline;display:inline;overflow:visible;vector-effect:none;fill:#4084ec;stroke:#4e4d0a;stroke-linejoin:bevel;stroke-opacity:1;enable-background:accumulate;stop-color:#000000;stop-opacity:1"
           d="M 34.2911,64.020574 H 44.848128"
           id="path6" /><path
           style="baseline-shift:baseline;display:inline;overflow:visible;vector-effect:none;fill:#e4e136;stroke:#4e4d0a;stroke-linejoin:bevel;stroke-opacity:1;enable-background:accumulate;stop-color:#000000;stop-opacity:1"
           d="m 34.291016,62.021484 v 4 h 10.55664 v -4 z"
           id="path7" /></g><g
         id="g16"
         style="opacity:1;stroke:#4e4d0a;stroke-opacity:1"
         transform="matrix(0.95081755,0.05857959,-0.05857959,0.95081755,1.4244262,8.7940287)"><path
           style="baseline-shift:baseline;display:inline;overflow:visible;vector-effect:none;fill:#4084ec;stroke:#4e4d0a;stroke-linejoin:bevel;stroke-opacity:1;enable-background:accumulate;stop-color:#000000;stop-opacity:1"
           d="M 34.2911,64.020574 H 44.848128"
           id="path15" /><path
           style="baseline-shift:baseline;display:inline;overflow:visible;vector-effect:none;fill:#e4e136;stroke:#4e4d0a;stroke-linejoin:bevel;stroke-opacity:1;enable-background:accumulate;stop-color:#000000;stop-opacity:1"
           d="m 34.291016,62.021484 v 4 h 10.55664 v -4 z"
           id="path16" /></g></g><path
       style="fill:#fef7c7;fill-opacity:1;stroke:#847e42;stroke-width:1.14829;stroke-linejoin:bevel;stroke-dasharray:none;stroke-opacity:1"
       d="m 42.656024,56.104701 c 2.693404,-1.719479 20.567005,-5.204637 22.239884,-2.678855 1.672881,2.525782 0.989227,5.003008 -2.882117,6.733506 2.300279,0.331462 3.346494,0.07422 3.503303,3.002829 0.192787,3.600491 -6.732858,4.369286 -6.732858,4.369286 0,0 5.406623,-1.321285 5.384039,2.561663 -0.02425,4.168845 -13.322696,5.136878 -13.322696,5.136878 0,0 0.02707,2.894154 -1.145586,3.469883 -1.172652,0.575733 -6.292713,1.047193 -8.420922,0.219956 C 39.31644,78.15697 40.421869,57.530991 42.656024,56.104701 Z"
       id="path10"
       sodipodi:nodetypes="sscscscsss" /></g></svg>
