<?xml version="1.0" encoding="UTF-8" standalone="no"?>
<!-- Created with Inkscape (http://www.inkscape.org/) -->

<svg
   width="54.638229mm"
   height="54.638229mm"
   viewBox="0 0 54.638229 54.638229"
   version="1.1"
   id="svg1"
   sodipodi:docname="speedup.svg"
   inkscape:version="1.4.2 (ebf0e940, 2025-05-08)"
   xml:space="preserve"
   xmlns:inkscape="http://www.inkscape.org/namespaces/inkscape"
   xmlns:sodipodi="http://sodipodi.sourceforge.net/DTD/sodipodi-0.dtd"
   xmlns="http://www.w3.org/2000/svg"
   xmlns:svg="http://www.w3.org/2000/svg"><sodipodi:namedview
     id="namedview1"
     pagecolor="#ffffff"
     bordercolor="#000000"
     borderopacity="0.25"
     inkscape:showpageshadow="2"
     inkscape:pageopacity="0.0"
     inkscape:pagecheckerboard="0"
     inkscape:deskcolor="#d1d1d1"
     inkscape:document-units="mm"
     inkscape:zoom="2.3558558"
     inkscape:cx="88.078396"
     inkscape:cy="103.5717"
     inkscape:window-width="1976"
     inkscape:window-height="1119"
     inkscape:window-x="0"
     inkscape:window-y="25"
     inkscape:window-maximized="0"
     inkscape:current-layer="layer1" /><defs
     id="defs1" /><g
     id="layer1"
     transform="translate(-12.053958,-45.938858)"><path
       style="fill:#cc60a8;fill-opacity:1;stroke-width:1.49961"
       id="path3"
       d="m 21.666979,77.921581 -5.285405,-14.251148 14.50939,-4.52862 11.920368,-9.430565 8.79062,12.399828 12.652598,8.422738 -9.076489,12.192134 -4.100628,14.636107 -14.400202,-4.864677 -15.186927,0.622875 z" /><path
       id="rect1"
       style="fill:#95a6c0;fill-opacity:1;stroke:#3563a3;stroke-width:2.45925;stroke-linejoin:bevel;stroke-opacity:1"
       d="m 41.328145,52.4414 c -5.049403,0 -9.114551,4.064514 -9.114551,9.113916 v 5.524394 h -7.180951 c -5.737955,0 -10.357444,4.61949 -10.357444,10.357445 v 2.485787 c 0,5.737955 4.619489,10.35681 10.357444,10.35681 h 16.295502 1.932966 0.0102 1.232727 c 5.049403,0 9.114552,-4.06515 9.114552,-9.114553 V 79.922942 77.437155 61.555316 c 0,-5.049402 -4.065149,-9.113916 -9.114552,-9.113916 z" /><g
       id="path4"
       style="opacity:1"
       transform="matrix(0.95262038,0,0,0.95262038,-1.3648758,3.3727901)"><path
         style="baseline-shift:baseline;display:inline;overflow:visible;vector-effect:none;fill:#4084ec;stroke-linejoin:bevel;enable-background:accumulate;stop-color:#000000;stop-opacity:1"
         d="M 34.2911,57.84359 H 44.848128"
         id="path8" /><path
         style="baseline-shift:baseline;display:inline;overflow:visible;vector-effect:none;fill:#e4e136;stroke:#4e4d0a;stroke-linejoin:bevel;stroke-opacity:1;enable-background:accumulate;stop-color:#000000;stop-opacity:1"
         d="m 34.291016,55.84375 v 4 h 10.55664 v -4 z"
         id="path9" /></g><g
       id="path5"
       style="opacity:1;stroke:#4e4d0a;stroke-opacity:1"
       transform="matrix(0.95262038,0,0,0.95262038,-1.3648758,3.3727901)"><path
         style="baseline-shift:baseline;display:inline;overflow:visible;vector-effect:none;fill:#4084ec;stroke:#4e4d0a;stroke-linejoin:bevel;stroke-opacity:1;enable-background:accumulate;stop-color:#000000;stop-opacity:1"
         d="M 34.2911,64.020574 H 44.848128"
         id="path6" /><path
         style="baseline-shift:baseline;display:inline;overflow:visible;vector-effect:none;fill:#e4e136;stroke:#4e4d0a;stroke-linejoin:bevel;stroke-opacity:1;enable-background:accumulate;stop-color:#000000;stop-opacity:1"
         d="m 34.291016,62.021484 v 4 h 10.55664 v -4 z"
         id="path7" /></g><path
       style="fill:#fef7c7;fill-opacity:1;stroke:#847e42;stroke-width:1.14829;stroke-linejoin:bevel;stroke-dasharray:none;stroke-opacity:1"
       d="m 42.697159,56.500847 c 2.868341,-1.408423 21.019095,-2.878818 22.3999,-0.18225 1.380806,2.696567 0.425188,5.082114 -3.614975,6.370138 2.248973,0.585891 3.317347,0.446919 3.146619,3.374744 -0.209895,3.599535 -7.178075,3.591279 -7.178075,3.591279 0,0 5.520238,-0.71017 5.06482,3.146045 -0.48895,4.140142 -13.812408,3.619271 -13.812408,3.619271 0,0 -0.295819,2.879123 -1.525357,3.320503 -1.229538,0.441384 -6.37024,0.338981 -8.392933,-0.720406 -1.865326,-0.976967 1.533146,-21.351052 3.912409,-22.519324 z"
       id="path10"
       sodipodi:nodetypes="sscscscsss" /></g></svg>
