<?xml version="1.0" encoding="UTF-8" standalone="no"?>
<!-- Created with Inkscape (http://www.inkscape.org/) -->

<svg
   width="54.638229mm"
   height="54.638229mm"
   viewBox="0 0 54.638229 54.638229"
   version="1.1"
   id="svg1"
   sodipodi:docname="speedup.svg"
   inkscape:version="1.4.2 (ebf0e940, 2025-05-08)"
   xml:space="preserve"
   xmlns:inkscape="http://www.inkscape.org/namespaces/inkscape"
   xmlns:sodipodi="http://sodipodi.sourceforge.net/DTD/sodipodi-0.dtd"
   xmlns="http://www.w3.org/2000/svg"
   xmlns:svg="http://www.w3.org/2000/svg"><sodipodi:namedview
     id="namedview1"
     pagecolor="#ffffff"
     bordercolor="#000000"
     borderopacity="0.25"
     inkscape:showpageshadow="2"
     inkscape:pageopacity="0.0"
     inkscape:pagecheckerboard="0"
     inkscape:deskcolor="#d1d1d1"
     inkscape:document-units="mm"
     inkscape:zoom="2.3558558"
     inkscape:cx="88.078396"
     inkscape:cy="103.5717"
     inkscape:window-width="1976"
     inkscape:window-height="1119"
     inkscape:window-x="0"
     inkscape:window-y="25"
     inkscape:window-maximized="0"
     inkscape:current-layer="layer1" /><defs
     id="defs1" /><g
     id="layer1"
     transform="translate(-12.053958,-45.938858)"><path
       style="fill:#ec40b3;fill-opacity:1;stroke-width:1.49961"
       id="path3"
       d="m 21.666979,77.921581 -5.285405,-14.251148 14.50939,-4.52862 11.920368,-9.430565 8.79062,12.399828 12.652598,8.422738 -9.076489,12.192134 -4.100628,14.636107 -14.400202,-4.864677 -15.186927,0.622875 z" /><path
       id="rect1"
       style="fill:#4084ec;fill-opacity:1;stroke:#104ca2;stroke-width:2.45925;stroke-linejoin:bevel;stroke-opacity:1"
       d="m 41.857312,52.4414 c -5.049403,0 -9.114551,4.064514 -9.114551,9.113916 V 67.07971 H 25.56181 c -5.737955,0 -10.357444,4.61949 -10.357444,10.357445 v 2.485787 c 0,5.737955 4.619489,10.35681 10.357444,10.35681 h 16.295502 1.932966 0.0102 1.232727 c 5.049403,0 9.114552,-4.06515 9.114552,-9.114553 V 79.922942 77.437155 61.555316 c 0,-5.049402 -4.065149,-9.113916 -9.114552,-9.113916 z" /><g
       id="path4"
       style="opacity:1"
       transform="matrix(0.95262038,0,0,0.95262038,-0.83570918,3.3727901)"><path
         style="baseline-shift:baseline;display:inline;overflow:visible;vector-effect:none;fill:#4084ec;stroke-linejoin:bevel;enable-background:accumulate;stop-color:#000000;stop-opacity:1"
         d="M 34.2911,57.84359 H 44.848128"
         id="path8" /><path
         style="baseline-shift:baseline;display:inline;overflow:visible;vector-effect:none;fill:#e4e136;stroke:#4e4d0a;stroke-linejoin:bevel;stroke-opacity:1;enable-background:accumulate;stop-color:#000000;stop-opacity:1"
         d="m 34.291016,55.84375 v 4 h 10.55664 v -4 z"
         id="path9" /></g><g
       id="path5"
       style="opacity:1;stroke:#4e4d0a;stroke-opacity:1"
       transform="matrix(0.95262038,0,0,0.95262038,-0.83570918,3.3727901)"><path
         style="baseline-shift:baseline;display:inline;overflow:visible;vector-effect:none;fill:#4084ec;stroke:#4e4d0a;stroke-linejoin:bevel;stroke-opacity:1;enable-background:accumulate;stop-color:#000000;stop-opacity:1"
         d="M 34.2911,64.020574 H 44.848128"
         id="path6" /><path
         style="baseline-shift:baseline;display:inline;overflow:visible;vector-effect:none;fill:#e4e136;stroke:#4e4d0a;stroke-linejoin:bevel;stroke-opacity:1;enable-background:accumulate;stop-color:#000000;stop-opacity:1"
         d="m 34.291016,62.021484 v 4 h 10.55664 v -4 z"
         id="path7" /></g><path
       style="fill:#fef7c7;fill-opacity:1;stroke:#c3b65f;stroke-width:1.0895;stroke-linejoin:bevel;stroke-dasharray:none;stroke-opacity:1"
       d="m 42.326659,58.230214 c 2.570656,-1.607472 19.559355,-4.755439 21.124103,-2.34423 1.56475,2.411208 0.894142,4.755437 -2.794194,6.36291 2.179472,0.334891 3.174363,0.100119 3.297149,2.880055 0.150956,3.417716 -6.426646,4.085659 -6.426646,4.085659 0,0 5.141317,-1.205604 5.085433,2.478185 -0.06,3.955021 -12.685638,4.755439 -12.685638,4.755439 0,0 -3e-6,2.7461 -1.117679,3.281923 -1.117677,0.535826 -5.979575,0.937692 -7.991393,0.133956 -1.855298,-0.741205 -0.623471,-20.300515 1.508865,-21.633897 z"
       id="path10"
       sodipodi:nodetypes="sscscscsss" /></g></svg>
