<?xml version="1.0" encoding="UTF-8" standalone="no"?>
<!-- Created with Inkscape (http://www.inkscape.org/) -->

<svg
   width="89.929092mm"
   height="115.82285mm"
   viewBox="0 0 89.929092 115.82285"
   version="1.1"
   id="svg1"
   xml:space="preserve"
   inkscape:version="1.4.2 (ebf0e940, 2025-05-08)"
   sodipodi:docname="tie.svg"
   xmlns:inkscape="http://www.inkscape.org/namespaces/inkscape"
   xmlns:sodipodi="http://sodipodi.sourceforge.net/DTD/sodipodi-0.dtd"
   xmlns:xlink="http://www.w3.org/1999/xlink"
   xmlns="http://www.w3.org/2000/svg"
   xmlns:svg="http://www.w3.org/2000/svg"><sodipodi:namedview
     id="namedview1"
     pagecolor="#ffffff"
     bordercolor="#000000"
     borderopacity="0.25"
     inkscape:showpageshadow="2"
     inkscape:pageopacity="0.0"
     inkscape:pagecheckerboard="0"
     inkscape:deskcolor="#d1d1d1"
     inkscape:document-units="mm"
     inkscape:zoom="1.7335998"
     inkscape:cx="120.26997"
     inkscape:cy="259.57547"
     inkscape:window-width="2240"
     inkscape:window-height="1119"
     inkscape:window-x="1"
     inkscape:window-y="25"
     inkscape:window-maximized="0"
     inkscape:current-layer="layer3"
     showgrid="false" /><defs
     id="defs1"><linearGradient
       id="linearGradient10"
       inkscape:collect="always"><stop
         style="stop-color:#aaaaaa;stop-opacity:1;"
         offset="0.07131281"
         id="stop10" /><stop
         style="stop-color:#676c6c;stop-opacity:1;"
         offset="0.19124797"
         id="stop12" /><stop
         style="stop-color:#9ba1a4;stop-opacity:1;"
         offset="0.58833063"
         id="stop13" /><stop
         style="stop-color:#939c9d;stop-opacity:1;"
         offset="0.88168555"
         id="stop11" /></linearGradient><linearGradient
       id="swatch19"
       inkscape:swatch="solid"><stop
         style="stop-color:#d08b6d;stop-opacity:1;"
         offset="0"
         id="stop19" /></linearGradient><linearGradient
       inkscape:collect="always"
       xlink:href="#linearGradient10"
       id="linearGradient11"
       x1="2.2662556"
       y1="59.499165"
       x2="82.473518"
       y2="45.152813"
       gradientUnits="userSpaceOnUse"
       gradientTransform="matrix(1.063944,0,0,1.063944,-2.8752058,-3.6777449)" /></defs><g
     inkscape:groupmode="layer"
     id="layer3"
     inkscape:label="skull"
     style="display:inline;opacity:1"><path
       id="path1"
       style="fill:url(#linearGradient11);fill-opacity:1;stroke:#5d5d5d;stroke-width:2.12789;stroke-linejoin:bevel;stroke-dasharray:none;stroke-opacity:1"
       d="M 44.964714,10.33027 A 42.253748,42.253748 0 0 0 2.7108465,52.584138 42.253748,42.253748 0 0 0 20.520236,87.049422 v 15.256628 c 0,1.26233 1.016082,2.27895 2.278407,2.27895 h 4.029545 c 1.262325,0 2.278405,-1.01662 2.278405,-2.27895 v -3.564405 h 5.99566 v 3.564405 c 0,1.26233 1.01608,2.27895 2.278405,2.27895 h 4.029545 c 1.262325,0 2.278405,-1.01662 2.278405,-2.27895 v -3.564405 h 4.732751 v 3.679315 c 0,1.26233 1.01608,2.27896 2.278405,2.27896 h 4.029546 c 1.262324,0 2.278405,-1.01663 2.278405,-2.27896 v -3.679315 h 4.158749 v 3.564405 c 0,1.26233 1.016083,2.27895 2.278407,2.27895 h 4.029544 c 1.262325,0 2.278406,-1.01662 2.278406,-2.27895 V 86.802557 A 42.253748,42.253748 0 0 0 87.218031,52.584138 42.253748,42.253748 0 0 0 44.964714,10.33027 Z M 31.398743,42.622161 A 13.119557,13.119557 0 0 1 44.51827,55.741688 13.119557,13.119557 0 0 1 31.398743,68.861213 13.119557,13.119557 0 0 1 18.279218,55.741688 13.119557,13.119557 0 0 1 31.398743,42.622161 Z m 27.958303,4.78993 A 11.142533,11.142533 0 0 1 70.50001,58.554507 11.142533,11.142533 0 0 1 59.357046,69.697471 11.142533,11.142533 0 0 1 48.21463,58.554507 11.142533,11.142533 0 0 1 59.357046,47.412091 Z M 44.080622,70.171406 49.400567,83.709335 38.570993,83.55264 Z" /></g></svg>
